<svg xmlns="http://www.w3.org/2000/svg" width="1728" height="2304" viewBox="0 0 1728 2304" version="1.1">
	<path d="M 621.500 561.656 C 579.345 566.669, 547.943 578.870, 515.596 602.806 C 504.472 611.038, 484.500 630.491, 475.677 641.689 C 466.494 653.343, 443.474 689.906, 423.539 724.500 C 420.369 730, 416.764 736.075, 415.527 738 C 412.477 742.748, 393.894 773.789, 382.003 794 C 366.136 820.968, 360.363 830.697, 337.502 869 C 325.520 889.075, 312.933 910.225, 309.531 916 C 306.130 921.775, 297.107 937.075, 289.480 950 C 241.587 1031.165, 232.045 1050.257, 224.636 1079.737 C 219.840 1098.817, 218.654 1110.626, 219.240 1133.421 C 220.207 1171.057, 227.425 1193.337, 253.768 1240 C 266.704 1262.916, 358.378 1417.216, 396.358 1480 C 403.512 1491.825, 414.732 1510.500, 421.292 1521.500 C 453.142 1574.905, 467.211 1596.667, 480.436 1612.981 C 514.071 1654.477, 567.258 1683.409, 620.143 1688.980 C 625.945 1689.591, 702.933 1689.972, 822.781 1689.983 C 1002.324 1689.999, 1016.108 1689.881, 1016.703 1688.332 C 1017.954 1685.073, 1012.372 1610.044, 1010.411 1603.750 C 1009.593 1601.128, 1008.814 1601.419, 996.504 1608.955 C 957.176 1633.030, 919.812 1644.891, 877 1646.892 C 807.172 1650.155, 752.091 1629.803, 707.797 1584.375 C 692.277 1568.456, 677.965 1547.476, 645.467 1493 C 633.491 1472.925, 620.162 1450.755, 615.846 1443.734 C 611.531 1436.713, 608 1430.814, 608 1430.626 C 608 1430.286, 590.668 1401.449, 556.838 1345.500 C 506.886 1262.888, 498.211 1248.462, 491.295 1236.500 C 487.161 1229.350, 481.626 1220.112, 478.995 1215.970 C 465.241 1194.319, 455.815 1172.033, 452.362 1153 C 450.036 1140.174, 450.061 1114.043, 452.412 1101 C 456.844 1076.412, 461.110 1067.856, 507.505 990.500 C 518.391 972.350, 528.018 956.284, 528.899 954.799 C 529.779 953.313, 532.732 948.363, 535.459 943.799 C 560.309 902.214, 568.439 888.562, 579.705 869.500 C 586.856 857.400, 594.760 844.125, 597.270 840 C 599.779 835.875, 606.538 824.625, 612.288 815 C 675.363 709.433, 686.510 693.064, 711.896 668.733 C 757.226 625.286, 815.301 604.461, 878.709 608.915 C 909.082 611.048, 931.715 617.078, 959.169 630.351 C 983.039 641.890, 997.368 652.217, 1017.555 672.428 C 1037.816 692.714, 1046.147 704.078, 1072.959 748 C 1080.849 760.925, 1089.406 774.875, 1091.974 779 C 1094.542 783.125, 1099.960 792.125, 1104.014 799 C 1108.068 805.875, 1115.740 818.700, 1121.064 827.500 C 1126.387 836.300, 1137.168 854.300, 1145.021 867.500 C 1202.900 964.788, 1216.334 985.222, 1234.500 1003.605 C 1260.622 1030.040, 1286.712 1043.984, 1322.500 1050.640 C 1337.864 1053.498, 1486.050 1053.507, 1490.409 1050.651 C 1495.179 1047.526, 1493.909 1041.070, 1485.535 1025.877 C 1477.021 1010.429, 1431.492 933.966, 1380.514 849.500 C 1365.245 824.200, 1344.102 789.100, 1333.531 771.500 C 1322.959 753.900, 1309.290 731.261, 1303.155 721.191 C 1297.020 711.121, 1292 702.688, 1292 702.451 C 1292 702.214, 1290.088 698.954, 1287.750 695.206 C 1285.412 691.459, 1282.969 687.516, 1282.321 686.446 C 1261.293 651.742, 1251.519 638.639, 1233.852 621.466 C 1205.198 593.613, 1173.056 575.937, 1134 566.554 C 1110.140 560.821, 1118.517 560.987, 861.006 561.150 C 730.928 561.232, 623.150 561.460, 621.500 561.656 M 851.337 664.931 C 843.773 666.167, 844.006 665.286, 843.953 692.872 C 843.771 788.087, 839.693 828.425, 825.883 871.623 C 796.493 963.555, 720.866 1044.205, 626.389 1084.368 C 590.974 1099.423, 563.037 1106.527, 530 1108.877 C 514.616 1109.972, 513.198 1110.350, 511.923 1113.701 C 510.916 1116.352, 510.670 1138.169, 511.609 1141.668 C 512.430 1144.728, 515.692 1145.736, 530.500 1147.501 C 562.588 1151.327, 592.372 1158.947, 620.672 1170.571 C 728.448 1214.841, 804.720 1298.423, 831.861 1402 C 841.162 1437.496, 843.939 1470.763, 843.980 1547.194 L 844 1583.888 846.406 1586.685 L 848.812 1589.482 862.156 1589.491 C 877.930 1589.502, 880.380 1588.975, 881.815 1585.263 C 882.510 1583.465, 883.044 1561.717, 883.342 1523 C 883.874 1453.943, 884.949 1440.584, 892.595 1408 C 921.688 1284.019, 1025.457 1184.787, 1156.512 1155.622 C 1192.618 1147.586, 1205.812 1147.048, 1368 1146.986 C 1513.305 1146.931, 1502.407 1147.465, 1504.065 1140.325 C 1505.336 1134.846, 1505.100 1118.120, 1503.694 1114.026 C 1501.511 1107.673, 1509.805 1108.033, 1364.500 1107.994 C 1198.621 1107.950, 1192.731 1107.616, 1144 1095.493 C 1038.310 1069.199, 946.713 990.440, 908.500 893 C 888.464 841.911, 883.119 803.847, 883.037 711.684 C 883.014 685.469, 882.623 669.163, 881.988 667.978 C 880.069 664.392, 864.254 662.819, 851.337 664.931 M 1350.500 1203.675 C 1309.431 1206.258, 1279.102 1217.816, 1247.930 1242.765 C 1229.171 1257.779, 1214.576 1274.887, 1194.412 1305.500 C 1181.561 1325.009, 1174 1338.700, 1174 1342.461 C 1174 1345.851, 1185.450 1353.891, 1234.500 1384.943 C 1246.050 1392.255, 1257.750 1399.691, 1260.500 1401.468 C 1263.250 1403.245, 1274.725 1410.544, 1286 1417.687 C 1297.275 1424.831, 1314.492 1435.742, 1324.261 1441.934 C 1334.029 1448.126, 1342.804 1453.390, 1343.761 1453.632 C 1345.058 1453.959, 1347.013 1451.710, 1351.449 1444.785 C 1364.356 1424.643, 1381.952 1396.433, 1394.978 1375 C 1402.500 1362.625, 1411.162 1348.450, 1414.228 1343.500 C 1419.530 1334.939, 1473.761 1244.593, 1480.557 1233 C 1490.768 1215.580, 1494.287 1205.092, 1490.418 1203.607 C 1488.853 1203.006, 1360.139 1203.069, 1350.500 1203.675 M 1055.215 1346.665 C 1050.653 1348.913, 1043.255 1357.423, 1042.030 1361.831 C 1040.669 1366.730, 1040.734 1370.749, 1042.475 1389.563 C 1043.286 1398.328, 1045.997 1428.225, 1048.501 1456 C 1051.004 1483.775, 1055.307 1529, 1058.064 1556.500 C 1060.821 1584, 1063.503 1611, 1064.024 1616.500 C 1064.546 1622, 1065.437 1630.775, 1066.005 1636 C 1066.574 1641.225, 1068.810 1663.968, 1070.976 1686.539 C 1073.142 1709.111, 1075.496 1729.318, 1076.207 1731.444 C 1078.260 1737.581, 1081.505 1739.313, 1091.877 1739.808 C 1107.551 1740.558, 1107.750 1740.392, 1135.195 1703.524 C 1140.527 1696.361, 1146.258 1688.700, 1147.931 1686.500 C 1149.603 1684.300, 1162.888 1666.546, 1177.452 1647.046 C 1192.016 1627.546, 1205.013 1611.025, 1206.333 1610.334 C 1208.859 1609.010, 1213.527 1608.267, 1255.500 1602.501 C 1366.563 1587.245, 1381.956 1584.749, 1386.004 1581.343 C 1392.896 1575.544, 1392.296 1553.021, 1385.096 1547.212 C 1381.743 1544.507, 1356.519 1527.701, 1333 1512.503 C 1319.525 1503.795, 1303.325 1493.283, 1297 1489.142 C 1290.675 1485.002, 1274.250 1474.432, 1260.500 1465.654 C 1227.325 1444.476, 1215.597 1436.967, 1190.011 1420.525 C 1169.685 1407.463, 1141.371 1389.641, 1118 1375.199 C 1112.225 1371.631, 1101.650 1365.068, 1094.500 1360.615 C 1069.867 1345.274, 1062.991 1342.832, 1055.215 1346.665" stroke="none" fill="#1b1e28" fill-rule="evenodd"/>
</svg>